<svg width="150" height="163" viewBox="0 0 150 163" fill="none" xmlns="http://www.w3.org/2000/svg">
<g clip-path="url(#clip0_352_2)">
<path d="M2.14263e-05 53.547C-0.00436238 51.1019 0.664026 48.7027 1.93202 46.612C3.27257 44.3891 5.0678 42.4746 7.20002 40.994C9.53059 39.3619 12.1095 38.1168 14.837 37.307C17.827 36.4116 20.9339 35.9678 24.055 35.99C28.5549 35.8314 32.9865 37.1245 36.695 39.678C40.089 42.1353 43.0737 46.173 45.649 51.791L64.082 91.82L81.813 46.174C84.268 39.8734 87.1411 33.7437 90.413 27.826C93.3062 22.5231 96.8455 17.5992 100.95 13.167C104.599 9.23247 108.907 5.9648 113.679 3.51101C120.664 0.0360494 128.642 -0.895388 136.239 0.877007C138.594 1.42208 140.846 2.34142 142.91 3.60001C144.843 4.77558 146.492 6.36421 147.738 8.25201C149.016 10.3017 149.658 12.6845 149.582 15.099C149.62 17.1491 149.243 19.1857 148.473 21.0864C147.704 22.987 146.558 24.7125 145.105 26.159C143.774 27.6013 142.159 28.7517 140.361 29.5377C138.563 30.3236 136.621 30.7279 134.659 30.725C132.691 30.73 130.744 30.3105 128.953 29.495C125.388 27.9207 122.539 25.072 120.965 21.507C120.151 19.7173 119.732 17.7732 119.736 15.807C119.698 13.81 120.104 11.8294 120.923 10.0079C121.743 8.18637 122.956 6.56927 124.476 5.27301C115.813 6.91301 108.439 11.507 102.354 19.055C96.2687 26.603 91.002 36.1127 86.554 47.584L52.494 135.191C50.8511 139.701 48.8553 144.074 46.525 148.27C44.8367 151.321 42.7396 154.127 40.292 156.61C38.3737 158.554 36.072 160.079 33.533 161.086C31.1169 161.978 28.5593 162.424 25.984 162.403C20.366 162.403 15.9184 160.94 12.641 158.014C11.0315 156.591 9.75622 154.83 8.90639 152.857C8.05656 150.884 7.65315 148.747 7.72502 146.6C7.72502 141.8 9.18802 138.259 12.114 135.978C14.8455 133.764 18.2547 132.555 21.771 132.554C25.7477 132.554 28.8197 133.783 30.987 136.241C33.1568 138.711 34.3165 141.907 34.235 145.194C34.227 147.229 33.8709 149.249 33.182 151.164C32.3686 153.343 31.1804 155.364 29.671 157.134C32.9464 156.546 35.96 154.556 38.712 151.164C41.464 147.772 44.3024 142.447 47.227 135.188L50.387 127.288L16.854 54.775C15.9925 52.8626 14.7702 51.1344 13.254 49.685C12.1771 48.6895 10.7714 48.1253 9.30502 48.1C7.70098 48.1672 6.14875 48.6872 4.82802 49.6C3.07767 50.7331 1.45844 52.0568 2.14263e-05 53.547V53.547Z" fill="black"/>
</g>
<defs>
<clipPath id="clip0_352_2">
<rect width="149.582" height="162.397" fill="white"/>
</clipPath>
</defs>
</svg>
