<svg width="160" height="66" viewBox="0 0 160 66" fill="none" xmlns="http://www.w3.org/2000/svg">
<g clip-path="url(#clip0_346_2)">
<path d="M8.89152e-06 21.7622C-0.00181298 20.7687 0.276375 19.7938 0.804153 18.9442C1.36273 18.0408 2.11041 17.2627 2.9983 16.6606C3.96851 15.9974 5.04219 15.4916 6.17781 15.1627C7.42319 14.7987 8.7173 14.6182 10.0173 14.6272C11.8919 14.562 13.7382 15.087 15.2834 16.1246C16.6967 17.1232 17.9398 18.7642 19.0127 21.0474L26.6907 37.3171L34.0768 18.7653C35.0995 16.205 36.2965 13.7143 37.6599 11.3099C38.8641 9.15429 40.3378 7.15282 42.0472 5.35134C43.5672 3.75234 45.3617 2.42454 47.3498 1.42771C50.2586 0.014624 53.5815 -0.363947 56.7457 0.357262C57.727 0.57833 58.6655 0.951431 59.5257 1.46237C60.3309 1.94015 61.0177 2.58603 61.5366 3.35361C62.0689 4.18657 62.336 5.15485 62.3042 6.13597C62.32 6.96921 62.163 7.79696 61.8425 8.56947C61.5221 9.34198 61.0448 10.0433 60.4395 10.6312C59.8853 11.2172 59.2124 11.6846 58.4635 12.0038C57.7147 12.323 56.906 12.4872 56.0888 12.4858C55.2689 12.4882 54.4582 12.3179 53.7119 11.9865C52.2269 11.3466 51.0401 10.1891 50.3836 8.7405C50.0442 8.01248 49.8696 7.2216 49.8719 6.42179C49.8561 5.6102 50.025 4.8053 50.3664 4.06507C50.7078 3.32484 51.2132 2.6677 51.8462 2.14101C48.238 2.80775 45.1663 4.67471 42.631 7.74189C39.8411 11.2545 37.6219 15.1652 36.0511 19.3365L21.8648 54.9405C21.1804 56.7734 20.349 58.5507 19.3782 60.2561C18.6753 61.4955 17.8022 62.6354 16.783 63.6442C15.9838 64.4344 15.025 65.054 13.9675 65.4636C12.9611 65.8258 11.8957 66.0072 10.823 65.9991C8.48334 65.9991 6.63085 65.4045 5.26556 64.2154C4.59525 63.637 4.06415 62.9214 3.71021 62.1196C3.35628 61.3177 3.18825 60.4495 3.21813 59.5769C3.21813 57.6262 3.8275 56.1876 5.04625 55.261C6.18371 54.361 7.60354 53.8696 9.068 53.869C9.78167 53.8271 10.496 53.9397 11.1598 54.1989C11.8236 54.458 12.4205 54.8573 12.9075 55.368C13.8116 56.372 14.2947 57.6717 14.2604 59.0078C14.2573 59.8349 14.1089 60.6553 13.8218 61.4335C13.4831 62.3193 12.9881 63.1405 12.3592 63.8597C13.7235 63.6206 14.9788 62.8119 16.1251 61.4335C17.2714 60.0551 18.4536 57.8908 19.6717 54.9405L20.9881 51.7297L7.02005 22.2615C6.66082 21.4847 6.15186 20.7826 5.52091 20.1934C5.07123 19.7893 4.48481 19.5607 3.87349 19.5515C3.20565 19.5777 2.55912 19.7881 2.00882 20.1583C1.28045 20.6187 0.606716 21.1567 8.89152e-06 21.7622V21.7622Z" fill="#D7D7D9"/>
<path d="M49.8719 22.2614C49.042 20.453 47.9938 19.5488 46.7274 19.5488C46.0595 19.575 45.4129 19.7854 44.8627 20.1556C44.1334 20.6171 43.459 21.1562 42.8518 21.7631C42.85 20.7695 43.1282 19.7947 43.656 18.945C44.2142 18.0416 44.9617 17.2634 45.8496 16.6615C46.8203 15.9981 47.8945 15.4923 49.0306 15.1636C50.276 14.7995 51.5701 14.619 52.8702 14.6281C54.766 14.57 56.6327 15.0933 58.2078 16.1245C59.6709 17.1231 60.8893 18.764 61.863 21.0472L68.6637 37.3154L77.0733 18.4784C77.2507 18.1218 77.3504 17.7332 77.3662 17.3371C77.363 17.1912 77.3209 17.0486 77.2438 16.9235C77.1668 16.7983 77.0576 16.695 76.927 16.6238C76.6054 16.4227 76.2444 16.289 75.867 16.231C75.4195 16.1566 74.9676 16.109 74.5141 16.0883C74.026 16.0649 73.5873 16.053 73.1977 16.0527H72.6129V14.9837H84.3131V16.0542C82.6547 16.0542 81.5091 16.2087 80.8762 16.5178C80.1211 16.968 79.5518 17.6623 79.2674 18.4799L64.7882 51.0162H62.9621L49.8719 22.2614Z" fill="#D7D7D9"/>
<path d="M103.985 51.7296C101.008 51.7775 98.0462 51.294 95.2468 50.303C92.8228 49.4354 90.6164 48.0731 88.7751 46.307C87.0038 44.57 85.6437 42.4757 84.7904 40.1712C83.8639 37.6544 83.4057 34.9964 83.4374 32.3224C83.3952 29.7088 83.8413 27.1095 84.7538 24.6519C85.5873 22.4585 86.9259 20.4811 88.6664 18.8722C90.496 17.2211 92.6647 15.9687 95.0285 15.1982C97.7983 14.302 100.703 13.8677 103.621 13.9138C105.244 13.9364 106.86 14.1156 108.447 14.4488C110.228 14.7982 111.951 15.3865 113.566 16.1969C115.136 16.9757 116.519 18.0699 117.624 19.4077C118.746 20.8103 119.329 22.5521 119.272 24.3304C119.313 25.8089 118.892 27.2645 118.066 28.5042C117.241 29.6887 116.154 30.6765 114.884 31.3941C113.489 32.1871 111.988 32.7874 110.424 33.1778C108.753 33.6083 107.055 33.9301 105.341 34.1413C103.61 34.3553 101.916 34.486 100.259 34.5336C98.602 34.5812 97.1395 34.6049 95.8713 34.6049C95.8821 37.1683 96.0409 39.729 96.347 42.2749C96.5003 43.8577 96.9332 45.4027 97.6263 46.8415C98.1104 47.8197 98.9421 48.5931 99.9667 49.018C101.089 49.4239 102.28 49.6176 103.477 49.5887C106.162 49.5621 108.822 49.0792 111.337 48.1616C113.963 47.2599 116.349 45.7972 118.321 43.8803C118.296 44.8631 117.978 45.8175 117.407 46.6275C116.699 47.649 115.777 48.5124 114.701 49.1607C113.321 50.0003 111.817 50.6261 110.24 51.0158C108.197 51.5225 106.094 51.7625 103.985 51.7296ZM95.8682 32.8217C97.331 32.7266 98.7448 32.572 100.11 32.358C101.388 32.174 102.617 31.7499 103.729 31.1093C104.799 30.4681 105.671 29.5558 106.252 28.4696C106.948 27.0465 107.275 25.4782 107.203 23.903C107.202 22.8973 107.104 21.8939 106.911 20.9061C106.743 19.9864 106.435 19.0964 105.996 18.2659C105.615 17.5447 105.078 16.912 104.424 16.4108C103.773 15.9303 102.975 15.6789 102.159 15.6976C101.272 15.7009 100.411 15.9892 99.7087 16.5178C98.8051 17.269 98.1235 18.242 97.7344 19.3364C97.0757 21.0394 96.6217 22.8112 96.3815 24.6163C96.0046 27.3354 95.8331 30.078 95.8682 32.8217V32.8217Z" fill="#D7D7D9"/>
<path d="M136.89 40.456C136.854 41.963 136.426 43.4363 135.647 44.7378C135.548 44.9276 135.451 45.1301 135.354 45.3441C135.252 45.5808 135.202 45.8361 135.208 46.093C135.202 46.3847 135.257 46.6744 135.37 46.9444C135.484 47.2144 135.652 47.4589 135.866 47.6628C136.347 48.1177 136.92 48.4699 137.548 48.697C138.255 48.9661 138.991 49.1577 139.742 49.2682C140.467 49.3829 141.201 49.4425 141.936 49.4465C143.471 49.4891 144.989 49.119 146.323 48.3766C147.541 47.6629 148.15 46.4023 148.151 44.5946C148.167 43.8623 148.031 43.1344 147.752 42.4542C147.436 41.7727 146.975 41.1647 146.4 40.6705C145.656 40.0216 144.848 39.4479 143.986 38.958C143.01 38.3867 141.816 37.7446 140.403 37.0316C138.185 35.9511 136.025 34.7608 133.931 33.4652C132.447 32.5602 131.062 31.5081 129.799 30.3257C128.887 29.4794 128.143 28.4756 127.606 27.365C127.166 26.3868 126.942 25.3293 126.948 24.2611C126.932 22.7999 127.31 21.3602 128.045 20.0868C128.825 18.7749 129.9 17.6526 131.189 16.8047C132.694 15.8155 134.364 15.0911 136.125 14.6643C138.24 14.1424 140.415 13.8906 142.597 13.9153C144.674 13.9083 146.745 14.1237 148.774 14.5578C150.598 14.9291 152.35 15.579 153.966 16.4837C155.376 17.2714 156.588 18.3561 157.513 19.6589C158.394 20.9324 158.854 22.4392 158.829 23.9758C158.897 25.4971 158.375 26.9875 157.367 28.1496C156.882 28.68 156.283 29.0992 155.613 29.3772C154.943 29.6551 154.218 29.7848 153.491 29.757C152.035 29.7957 150.621 29.2846 149.542 28.3304C148.998 27.8291 148.573 27.2185 148.295 26.5408C148.017 25.8631 147.894 25.1346 147.933 24.4058C147.915 23.504 148.077 22.6073 148.409 21.7656C148.641 21.1736 148.922 20.6009 149.25 20.0532C149.519 19.6097 149.716 19.1284 149.834 18.6261C149.834 18.1516 149.347 17.557 148.372 16.8423C147.283 16.0954 145.972 15.7193 144.642 15.7724C143.183 15.737 141.762 16.233 140.657 17.1638C140.128 17.5939 139.706 18.1347 139.42 18.746C139.135 19.3574 138.995 20.0236 139.01 20.6951C139 21.6129 139.253 22.515 139.741 23.2997C140.217 24.0714 140.808 24.7689 141.496 25.3687C142.16 25.9509 142.883 26.4651 143.653 26.9033C144.409 27.3306 145.054 27.6873 145.591 27.9733C148.054 29.1869 150.447 30.5327 152.757 32.0044C154.312 32.9901 155.779 34.1 157.145 35.3227C158.068 36.1271 158.825 37.0956 159.375 38.1764C159.783 39.0505 159.995 39.9991 159.997 40.9593C160.002 42.5146 159.516 44.0338 158.607 45.3114C157.61 46.7089 156.312 47.8777 154.805 48.7367C153.053 49.7449 151.154 50.4899 149.174 50.9469C146.925 51.482 144.616 51.7455 142.301 51.7316C140.348 51.7265 138.401 51.5354 136.487 51.1609C134.603 50.8109 132.781 50.1982 131.076 49.3415C129.506 48.562 128.142 47.4384 127.091 46.0589C126.038 44.614 125.498 42.8726 125.555 41.1004C125.473 39.4348 126.02 37.7977 127.091 36.4982C127.629 35.9089 128.296 35.4456 129.043 35.143C129.79 34.8403 130.597 34.706 131.404 34.7501C133.258 34.7501 134.635 35.2971 135.536 36.3912C136.46 37.5503 136.939 38.9884 136.89 40.456V40.456Z" fill="#D7D7D9"/>
</g>
<defs>
<clipPath id="clip0_346_2">
<rect width="160" height="66" fill="white"/>
</clipPath>
</defs>
</svg>
