<svg xmlns="http://www.w3.org/2000/svg" viewBox="0 0 310.79 131.39"><defs><style>.cls-1{fill:#d7d7d9;}</style></defs><g id="Camada_2" data-name="Camada 2"><g id="Camada_1-2" data-name="Camada 1"><path class="cls-1" d="M0,43.323a10.786,10.786,0,0,1,1.562-5.61,14.926,14.926,0,0,1,4.262-4.546A21.356,21.356,0,0,1,12,30.185a25.359,25.359,0,0,1,7.458-1.066A16.976,16.976,0,0,1,29.687,32.1q4.118,2.982,7.244,9.8L51.845,74.289,66.192,37.357a122.683,122.683,0,0,1,6.96-14.842,59.084,59.084,0,0,1,8.522-11.862,37.305,37.305,0,0,1,10.3-7.811A27.112,27.112,0,0,1,110.225.711a18.305,18.305,0,0,1,5.4,2.2,12.394,12.394,0,0,1,3.906,3.765,9.879,9.879,0,0,1,1.491,5.539,12.306,12.306,0,0,1-3.622,8.949,11.474,11.474,0,0,1-8.451,3.692,11.067,11.067,0,0,1-4.617-.994A12.662,12.662,0,0,1,97.867,17.4a11.075,11.075,0,0,1-.994-4.616,10.927,10.927,0,0,1,3.835-8.522q-10.513,1.991-17.9,11.15A86.235,86.235,0,0,0,70.027,38.494L42.471,109.373a73.889,73.889,0,0,1-4.83,10.582A30.968,30.968,0,0,1,32.6,126.7a15.957,15.957,0,0,1-5.469,3.622,17.264,17.264,0,0,1-6.108,1.066q-6.817,0-10.795-3.551a11.8,11.8,0,0,1-3.977-9.234q0-5.825,3.551-8.592a12.41,12.41,0,0,1,7.812-2.771,9.414,9.414,0,0,1,7.458,2.984A10.578,10.578,0,0,1,27.7,117.47a14.414,14.414,0,0,1-.852,4.829,16.125,16.125,0,0,1-2.841,4.83q3.975-.714,7.315-4.83t6.889-12.926l2.557-6.392L13.636,44.317A13.233,13.233,0,0,0,10.724,40.2a4.834,4.834,0,0,0-3.2-1.278,6.869,6.869,0,0,0-3.622,1.208A22.776,22.776,0,0,0,0,43.323Z"/><path class="cls-1" d="M96.873,44.317q-2.418-5.4-6.108-5.4a6.864,6.864,0,0,0-3.622,1.208,22.776,22.776,0,0,0-3.906,3.2,10.786,10.786,0,0,1,1.562-5.61,14.91,14.91,0,0,1,4.261-4.546,21.35,21.35,0,0,1,6.179-2.982,25.354,25.354,0,0,1,7.458-1.066A17.615,17.615,0,0,1,113.065,32.1q4.263,2.982,7.1,9.8l13.21,32.386,16.335-37.5a5.71,5.71,0,0,0,.569-2.272,1.667,1.667,0,0,0-.853-1.42,5.364,5.364,0,0,0-2.059-.782,21.656,21.656,0,0,0-2.628-.284q-1.422-.07-2.557-.071h-1.136V29.829h22.727V31.96q-4.832,0-6.676.923a7.343,7.343,0,0,0-3.125,3.906l-28.125,64.772H122.3Z"/><path class="cls-1" d="M201.985,102.981a47.471,47.471,0,0,1-16.974-2.84,35.246,35.246,0,0,1-12.571-7.955A33.416,33.416,0,0,1,164.7,79.971a44.692,44.692,0,0,1-2.628-15.625,42.846,42.846,0,0,1,2.557-15.27,30.412,30.412,0,0,1,7.6-11.506,34.121,34.121,0,0,1,12.358-7.314,50.427,50.427,0,0,1,16.69-2.557,47.794,47.794,0,0,1,9.375,1.065,38.233,38.233,0,0,1,9.943,3.48,24.235,24.235,0,0,1,7.883,6.392,15.15,15.15,0,0,1,3.2,9.8,14.521,14.521,0,0,1-2.343,8.309,18.954,18.954,0,0,1-6.18,5.753,33.9,33.9,0,0,1-8.664,3.551,75.891,75.891,0,0,1-9.872,1.918q-5.044.639-9.872.781t-8.523.142a135.822,135.822,0,0,0,.924,15.269,27.442,27.442,0,0,0,2.485,9.091,8.926,8.926,0,0,0,4.546,4.333,18.311,18.311,0,0,0,6.818,1.136,44.9,44.9,0,0,0,15.269-2.841,36.292,36.292,0,0,0,13.566-8.523,10.1,10.1,0,0,1-1.776,5.469,17.367,17.367,0,0,1-5.256,5.043,30.561,30.561,0,0,1-8.665,3.693A46.323,46.323,0,0,1,201.985,102.981ZM186.218,65.34q4.262-.284,8.239-.923a19.407,19.407,0,0,0,7.031-2.486,13.488,13.488,0,0,0,4.9-5.255,19.135,19.135,0,0,0,1.847-9.091,31.961,31.961,0,0,0-.568-5.966,18.589,18.589,0,0,0-1.776-5.256,11.267,11.267,0,0,0-3.054-3.693,7.019,7.019,0,0,0-4.4-1.42,7.84,7.84,0,0,0-4.759,1.633,12.944,12.944,0,0,0-3.835,5.611,46.857,46.857,0,0,0-2.628,10.511A111.5,111.5,0,0,0,186.218,65.34Z"/><path class="cls-1" d="M265.9,80.538a17.711,17.711,0,0,1-2.415,8.524c-.191.378-.379.781-.568,1.207a3.61,3.61,0,0,0-.284,1.491,4.25,4.25,0,0,0,1.279,3.125,9.37,9.37,0,0,0,3.266,2.059,19.917,19.917,0,0,0,4.262,1.137,27.613,27.613,0,0,0,4.261.355,16.27,16.27,0,0,0,8.522-2.13q3.549-2.131,3.552-7.529A10.894,10.894,0,0,0,287,84.516a10.5,10.5,0,0,0-2.628-3.551,28.686,28.686,0,0,0-4.688-3.409q-2.843-1.706-6.96-3.835a141.367,141.367,0,0,1-12.571-7.1,49.4,49.4,0,0,1-8.026-6.25,19.79,19.79,0,0,1-4.26-5.894,15.179,15.179,0,0,1-1.279-6.179,16.576,16.576,0,0,1,2.131-8.31,19.968,19.968,0,0,1,6.108-6.534,30.182,30.182,0,0,1,9.588-4.261,48.952,48.952,0,0,1,12.57-1.491,55.142,55.142,0,0,1,12,1.279,34.373,34.373,0,0,1,10.085,3.834,21.2,21.2,0,0,1,6.889,6.321,14.938,14.938,0,0,1,2.557,8.594,12.044,12.044,0,0,1-2.841,8.309,9.583,9.583,0,0,1-7.529,3.2,10.975,10.975,0,0,1-7.67-2.84,10.024,10.024,0,0,1-3.125-7.813,13.865,13.865,0,0,1,.924-5.256,23.346,23.346,0,0,1,1.633-3.409,9.953,9.953,0,0,0,1.136-2.841q0-1.417-2.84-3.551a11.762,11.762,0,0,0-7.245-2.13,11.412,11.412,0,0,0-7.741,2.77,8.9,8.9,0,0,0-3.2,7.03,9.8,9.8,0,0,0,1.421,5.185,17.855,17.855,0,0,0,3.409,4.119,25.347,25.347,0,0,0,4.19,3.055q2.2,1.276,3.764,2.13a145.2,145.2,0,0,1,13.92,8.025,65.046,65.046,0,0,1,8.523,6.606,18.909,18.909,0,0,1,4.332,5.681,13.473,13.473,0,0,1,1.208,5.54,15.121,15.121,0,0,1-2.7,8.664,23.359,23.359,0,0,1-7.385,6.819,39.4,39.4,0,0,1-10.938,4.4,54.95,54.95,0,0,1-13.352,1.562,58.224,58.224,0,0,1-11.292-1.136,38.82,38.82,0,0,1-10.511-3.622,22.177,22.177,0,0,1-7.741-6.535,16.165,16.165,0,0,1-2.984-9.871,13.588,13.588,0,0,1,2.984-9.162,10.439,10.439,0,0,1,8.379-3.48q5.4,0,8.026,3.267A12.514,12.514,0,0,1,265.9,80.538Z"/></g></g></svg>