<svg width="119" height="52" viewBox="0 0 119 52" fill="none" xmlns="http://www.w3.org/2000/svg">
<g clip-path="url(#clip0_350_2)">
<path d="M6.6131e-06 17.146C-0.00134841 16.3633 0.205554 15.5952 0.598089 14.9258C1.01353 14.2141 1.56961 13.601 2.22999 13.1266C2.95158 12.6041 3.75013 12.2056 4.59475 11.9464C5.52099 11.6596 6.48349 11.5174 7.45038 11.5245C8.84459 11.4732 10.2178 11.8868 11.367 12.7043C12.4182 13.4911 13.3428 14.784 14.1407 16.5829L19.8512 29.4014L25.3446 14.7849C26.1052 12.7677 26.9955 10.8053 28.0096 8.91089C28.9052 7.21255 30.0012 5.63563 31.2726 4.21628C32.4031 2.95647 33.7378 1.91032 35.2164 1.12494C37.3798 0.0115976 39.8513 -0.28667 42.2046 0.281555C42.9344 0.45573 43.6325 0.749688 44.2723 1.15225C44.8711 1.52868 45.3819 2.03756 45.7679 2.64231C46.1637 3.29859 46.3624 4.06147 46.3388 4.83447C46.3505 5.49097 46.2337 6.14314 45.9954 6.75178C45.757 7.36042 45.4021 7.91297 44.9519 8.3762C44.5397 8.83787 44.0392 9.2061 43.4823 9.45761C42.9253 9.70912 42.3239 9.83844 41.7161 9.83738C41.1063 9.83925 40.5033 9.70507 39.9482 9.44399C38.8438 8.93983 37.9611 8.02787 37.4728 6.88653C37.2204 6.31294 37.0906 5.68982 37.0922 5.05967C37.0805 4.42024 37.2061 3.78607 37.46 3.20286C37.7139 2.61964 38.0898 2.1019 38.5606 1.68693C35.877 2.21225 33.5924 3.68318 31.7068 6.09975C29.6318 8.86729 27.9813 11.9484 26.813 15.2349L16.2619 43.2865C15.7529 44.7306 15.1345 46.1309 14.4126 47.4746C13.8898 48.4511 13.2404 49.3492 12.4824 50.144C11.8879 50.7666 11.1749 51.2547 10.3883 51.5775C9.63978 51.8628 8.84743 52.0058 8.04961 51.9994C6.30948 51.9994 4.9317 51.5309 3.91626 50.594C3.41772 50.1384 3.02271 49.5745 2.75947 48.9428C2.49623 48.311 2.37126 47.6269 2.39348 46.9395C2.39348 45.4026 2.8467 44.2691 3.75315 43.539C4.59913 42.8299 5.65513 42.4428 6.74432 42.4424C7.27512 42.4093 7.80641 42.498 8.30012 42.7022C8.79383 42.9064 9.23771 43.2209 9.59996 43.6233C10.2724 44.4144 10.6317 45.4384 10.6062 46.4911C10.6039 47.1427 10.4935 47.7891 10.28 48.4022C10.0281 49.1002 9.65993 49.7471 9.19217 50.3138C10.2068 50.1254 11.1405 49.4882 11.9931 48.4022C12.8456 47.3162 13.7249 45.611 14.6308 43.2865L15.6099 40.7568L5.22117 17.5394C4.95398 16.9275 4.57545 16.3743 4.10617 15.9101C3.77173 15.5916 3.33557 15.4116 2.88091 15.4043C2.38421 15.425 1.90335 15.5907 1.49406 15.8823C0.952333 16.2451 0.451245 16.669 6.6131e-06 17.146Z" fill="#353540"/>
<path d="M37.0923 17.5393C36.475 16.1145 35.6955 15.4021 34.7535 15.4021C34.2568 15.4227 33.7759 15.5885 33.3667 15.8802C32.8243 16.2438 32.3227 16.6685 31.8711 17.1467C31.8697 16.3639 32.0766 15.5958 32.4692 14.9264C32.8844 14.2146 33.4403 13.6015 34.1007 13.1272C34.8226 12.6046 35.6216 12.206 36.4666 11.9471C37.3928 11.6602 38.3553 11.518 39.3222 11.5252C40.7323 11.4794 42.1207 11.8917 43.2921 12.7042C44.3803 13.4909 45.2865 14.7838 46.0107 16.5827L51.0687 29.4L57.3233 14.5587C57.4552 14.2778 57.5294 13.9716 57.5412 13.6595C57.5388 13.5446 57.5075 13.4322 57.4502 13.3337C57.3929 13.2351 57.3117 13.1537 57.2145 13.0976C56.9753 12.9391 56.7068 12.8338 56.4262 12.7881C56.0933 12.7295 55.7572 12.6919 55.4199 12.6757C55.0569 12.6572 54.7306 12.6478 54.4409 12.6476H54.0059V11.8054H62.7079V12.6488C61.4745 12.6488 60.6224 12.7705 60.1517 13.014C59.5901 13.3687 59.1667 13.9158 58.9552 14.5599L48.1863 40.1946H46.8281L37.0923 17.5393Z" fill="#353540"/>
<path d="M77.3391 40.7566C75.1245 40.7943 72.9219 40.4134 70.8398 39.6326C69.0369 38.9491 67.3959 37.8757 66.0265 36.4842C64.7091 35.1157 63.6975 33.4656 63.0628 31.6499C62.3738 29.667 62.033 27.5728 62.0566 25.4661C62.0252 23.4069 62.357 21.359 63.0357 19.4227C63.6555 17.6945 64.6511 16.1365 65.9457 14.869C67.3064 13.5681 68.9194 12.5813 70.6775 11.9743C72.7375 11.2681 74.8979 10.926 77.068 10.9623C78.2751 10.9801 79.4775 11.1213 80.6576 11.3838C81.9821 11.6591 83.2633 12.1226 84.4648 12.7611C85.6324 13.3747 86.661 14.2369 87.4831 15.2909C88.3177 16.3959 88.7512 17.7682 88.7084 19.1694C88.7388 20.3342 88.4259 21.481 87.8113 22.4578C87.1982 23.391 86.3893 24.1693 85.445 24.7347C84.4074 25.3595 83.291 25.8325 82.1276 26.14C80.8852 26.4792 79.6225 26.7328 78.3476 26.8991C77.0601 27.0677 75.8001 27.1708 74.5677 27.2082C73.3353 27.2457 72.2475 27.2644 71.3043 27.2644C71.3123 29.284 71.4304 31.3015 71.6581 33.3074C71.7721 34.5545 72.094 35.7717 72.6096 36.9053C72.9697 37.676 73.5882 38.2854 74.3502 38.6202C75.1849 38.94 76.0709 39.0926 76.9608 39.0698C78.958 39.0489 80.9364 38.6684 82.8072 37.9454C84.7602 37.235 86.5349 36.0826 88.0016 34.5723C87.9826 35.3466 87.7463 36.0986 87.3216 36.7367C86.7948 37.5416 86.1088 38.2218 85.3091 38.7326C84.2829 39.3941 83.1636 39.8871 81.9913 40.1942C80.4714 40.5934 78.9071 40.7825 77.3391 40.7566ZM71.302 25.8594C72.3899 25.7845 73.4415 25.6627 74.4567 25.4942C75.4071 25.3492 76.3214 25.015 77.1488 24.5103C77.9446 24.0051 78.593 23.2864 79.025 22.4305C79.5427 21.3093 79.7855 20.0737 79.7322 18.8326C79.7314 18.0402 79.6586 17.2497 79.5147 16.4714C79.39 15.7468 79.1608 15.0456 78.8347 14.3913C78.5508 13.823 78.152 13.3246 77.6653 12.9297C77.1813 12.5511 76.5875 12.353 75.9806 12.3677C75.321 12.3704 74.6806 12.5975 74.1584 13.014C73.4863 13.6058 72.9794 14.3725 72.69 15.2347C72.2001 16.5764 71.8624 17.9724 71.6837 19.3946C71.4034 21.537 71.2759 23.6977 71.302 25.8594Z" fill="#353540"/>
<path d="M101.812 31.8744C101.785 33.0617 101.467 34.2225 100.887 35.2479C100.814 35.3975 100.742 35.557 100.67 35.7256C100.593 35.9121 100.556 36.1133 100.561 36.3157C100.556 36.5455 100.598 36.7738 100.682 36.9865C100.766 37.1992 100.892 37.3919 101.051 37.5525C101.408 37.9109 101.834 38.1884 102.301 38.3674C102.827 38.5794 103.375 38.7303 103.933 38.8174C104.473 38.9077 105.018 38.9547 105.565 38.9579C106.706 38.9914 107.835 38.6998 108.828 38.1149C109.734 37.5526 110.187 36.5594 110.188 35.1351C110.199 34.5581 110.098 33.9847 109.891 33.4488C109.656 32.9118 109.313 32.4328 108.885 32.0434C108.332 31.5322 107.731 31.0801 107.09 30.6942C106.364 30.2441 105.476 29.7382 104.425 29.1764C102.775 28.3251 101.168 27.3873 99.6114 26.3665C98.5074 25.6535 97.4775 24.8246 96.5382 23.8929C95.8598 23.2262 95.3067 22.4353 94.9071 21.5603C94.5799 20.7896 94.4131 19.9564 94.4174 19.1148C94.4054 17.9635 94.6868 16.8293 95.2333 15.826C95.8137 14.7923 96.6133 13.9081 97.572 13.24C98.6911 12.4607 99.9336 11.8899 101.243 11.5537C102.816 11.1425 104.434 10.9441 106.056 10.9636C107.601 10.9581 109.142 11.1278 110.651 11.4698C112.007 11.7623 113.311 12.2744 114.512 12.9871C115.561 13.6077 116.462 14.4624 117.15 15.4888C117.806 16.4922 118.148 17.6794 118.129 18.89C118.18 20.0886 117.792 21.2629 117.041 22.1785C116.681 22.5964 116.236 22.9267 115.737 23.1456C115.239 23.3646 114.7 23.4668 114.159 23.4449C113.076 23.4754 112.024 23.0727 111.222 22.3209C110.818 21.926 110.501 21.4449 110.294 20.9109C110.088 20.377 109.996 19.8031 110.025 19.2288C110.012 18.5183 110.132 17.8118 110.379 17.1486C110.552 16.6822 110.761 16.231 111.004 15.7995C111.205 15.4501 111.351 15.0708 111.439 14.6751C111.439 14.3012 111.077 13.8328 110.352 13.2697C109.542 12.6812 108.567 12.3849 107.578 12.4267C106.492 12.3988 105.436 12.7896 104.614 13.523C104.221 13.8618 103.906 14.2879 103.694 14.7696C103.482 15.2513 103.378 15.7762 103.389 16.3053C103.381 17.0283 103.57 17.7391 103.933 18.3573C104.286 18.9654 104.726 19.5149 105.238 19.9875C105.731 20.4461 106.269 20.8513 106.842 21.1966C107.404 21.5332 107.884 21.8142 108.284 22.0396C110.116 22.9957 111.895 24.056 113.613 25.2156C114.769 25.9922 115.861 26.8667 116.877 27.83C117.563 28.4637 118.126 29.2268 118.536 30.0784C118.838 30.7671 118.996 31.5145 118.998 32.271C119.001 33.4964 118.64 34.6933 117.964 35.6999C117.222 36.8009 116.257 37.7218 115.137 38.3986C113.833 39.1929 112.421 39.78 110.948 40.14C109.275 40.5616 107.558 40.7692 105.836 40.7582C104.384 40.7542 102.936 40.6036 101.512 40.3086C100.111 40.0329 98.7559 39.5501 97.4878 38.8751C96.32 38.2609 95.3055 37.3757 94.5238 36.2888C93.7406 35.1504 93.3393 33.7784 93.3813 32.3822C93.3208 31.0698 93.7272 29.78 94.5238 28.7561C94.9239 28.2918 95.4201 27.9269 95.9756 27.6884C96.5311 27.4499 97.1315 27.3441 97.7321 27.3789C99.1105 27.3789 100.135 27.8099 100.805 28.6718C101.492 29.5851 101.848 30.7181 101.812 31.8744Z" fill="#353540"/>
</g>
<defs>
<clipPath id="clip0_350_2">
<rect width="119" height="52" fill="white"/>
</clipPath>
</defs>
</svg>
